{
	"asset":{
		"generator":"Khronos glTF Blender I/O v3.6.27",
		"version":"2.0"
	},
	"scene":0,
	"scenes":[
		{
			"name":"Scene",
			"nodes":[
				4
			]
		}
	],
	"nodes":[
		{
			"mesh":0,
			"name":"Export_for_maya_polygon_increase:pSphere15_lambert1_0",
			"rotation":[
				0,
				0.39689016342163086,
				0,
				0.9178661108016968
			]
		},
		{
			"children":[
				0
			],
			"name":"Export_for_maya_polygon_increase:pSphere15"
		},
		{
			"children":[
				1
			],
			"name":"RootNode"
		},
		{
			"children":[
				2
			],
			"name":"d696beb08c8a49a8bc97d836e0936318.fbx",
			"rotation":[
				0.70710688829422,
				0,
				0,
				0.7071066498756409
			]
		},
		{
			"children":[
				3
			],
			"name":"Sketchfab_model",
			"rotation":[
				-0.70710688829422,
				0,
				0,
				0.7071066498756409
			]
		}
	],
	"materials":[
		{
			"doubleSided":true,
			"emissiveFactor":[
				1,
				1,
				1
			],
			"emissiveTexture":{
				"index":0
			},
			"name":"lambert1",
			"normalTexture":{
				"index":1
			},
			"occlusionTexture":{
				"index":2
			},
			"pbrMetallicRoughness":{
				"baseColorTexture":{
					"index":3
				},
				"metallicRoughnessTexture":{
					"index":2
				}
			}
		}
	],
	"meshes":[
		{
			"name":"Export_for_maya_polygon_increase:pSphere15_lambert1_0",
			"primitives":[
				{
					"attributes":{
						"POSITION":0,
						"NORMAL":1,
						"TEXCOORD_0":2
					},
					"indices":3,
					"material":0
				}
			]
		}
	],
	"textures":[
		{
			"sampler":0,
			"source":0
		},
		{
			"sampler":0,
			"source":1
		},
		{
			"sampler":0,
			"source":2
		},
		{
			"sampler":0,
			"source":3
		}
	],
	"images":[
		{
			"mimeType":"image/png",
			"name":"lambert1_emissive",
			"uri":"textures/lambert1_emissive.png"
		},
		{
			"mimeType":"image/png",
			"name":"lambert1_normal",
			"uri":"textures/lambert1_normal.png"
		},
		{
			"mimeType":"image/png",
			"name":"lambert1_metallicRoughness",
			"uri":"textures/lambert1_metallicRoughness.png"
		},
		{
			"mimeType":"image/png",
			"name":"lambert1_baseColor",
			"uri":"textures/lambert1_baseColor.png"
		}
	],
	"accessors":[
		{
			"bufferView":0,
			"componentType":5126,
			"count":45117,
			"max":[
				596.7711791992188,
				303.1275634765625,
				594.3552856445312
			],
			"min":[
				-600.7894897460938,
				-153.4594268798828,
				-589.0971069335938
			],
			"type":"VEC3"
		},
		{
			"bufferView":1,
			"componentType":5126,
			"count":45117,
			"type":"VEC3"
		},
		{
			"bufferView":2,
			"componentType":5126,
			"count":45117,
			"type":"VEC2"
		},
		{
			"bufferView":3,
			"componentType":5123,
			"count":192192,
			"type":"SCALAR"
		}
	],
	"bufferViews":[
		{
			"buffer":0,
			"byteLength":541404,
			"byteOffset":0,
			"target":34962
		},
		{
			"buffer":0,
			"byteLength":541404,
			"byteOffset":541404,
			"target":34962
		},
		{
			"buffer":0,
			"byteLength":360936,
			"byteOffset":1082808,
			"target":34962
		},
		{
			"buffer":0,
			"byteLength":384384,
			"byteOffset":1443744,
			"target":34963
		}
	],
	"samplers":[
		{
			"magFilter":9729,
			"minFilter":9987
		}
	],
	"buffers":[
		{
			"byteLength":1828128,
			"uri":"scene.bin"
		}
	]
}
